# xmcd
#
# Track frame offsets:
#	150
#	17825
#	36200
#	55982
#	69800
#	85837
#	110275
#	128887
#	151750
#	175250
#	193200
#	213650
#	233000
#	252800
#
# Disc length: 3639 seconds
#
# Revision: 1
# Processed by: cddbd v1.5.1PL0 Copyright (c) Steve Scherf et al.
# Submitted via: CDex 1.50Beta5
#
DISCID=b60e350e
DTITLE=さまざまなアーティスト - TV/CMソング97
DYEAR=1900
DGENRE=Other
TTITLE0=奥田民生/イージュ★ライダー
TTITLE1=カズン/水曜日に会いましょう
TTITLE2=Puffy/アジアの純真
TTITLE3=SMILE/ジグゾーパズル
TTITLE4=ISIS/summergoodでいいじゃない
TTITLE5=電気グルーヴ/ポポ(RADIO_EDIT)
TTITLE6=女王様/渚の女王様Short_Version
TTITLE7=THE BOOM/中央線
TTITLE8=ACRI/DOLPHINS'WORLD
TTITLE9=篠原ともえ/やる気センセーション
TTITLE10=小野正利/君に来た夏
TTITLE11=電気グルーヴ/誰だ(RADIO_EDIT)
TTITLE12=バニラ/つばさ
TTITLE13=郷ひろみ/くせになる
EXTD=
EXTT0=
EXTT1=
EXTT2=
EXTT3=
EXTT4=
EXTT5=
EXTT6=
EXTT7=
EXTT8=
EXTT9=
EXTT10=
EXTT11=
EXTT12=
EXTT13=
PLAYORDER=
